<svg xmlns="http://www.w3.org/2000/svg" xmlns:xlink="http://www.w3.org/1999/xlink" width="500" zoomAndPan="magnify" viewBox="0 0 375 374.999991" height="500" preserveAspectRatio="xMidYMid meet" version="1.0"><defs><g/></defs><path fill="#ffffff" d="M 182.484375 212.394531 C 183.328125 213.332031 183.328125 214.738281 182.484375 215.582031 C 181.640625 216.425781 180.234375 216.425781 179.296875 215.582031 C 178.453125 214.738281 178.453125 213.332031 179.296875 212.394531 C 180.234375 211.550781 181.640625 211.550781 182.484375 212.394531 Z M 182.484375 212.394531 " fill-opacity="1" fill-rule="evenodd"/><path fill="#ffffff" d="M 169.921875 225.050781 C 170.765625 225.894531 170.765625 227.300781 169.921875 228.144531 C 168.984375 228.988281 167.578125 228.988281 166.734375 228.144531 C 165.890625 227.300781 165.890625 225.894531 166.734375 225.050781 C 167.578125 224.113281 168.984375 224.113281 169.921875 225.050781 Z M 169.921875 225.050781 " fill-opacity="1" fill-rule="evenodd"/><path fill="#ffffff" d="M 115.921875 184.644531 C 112.546875 163.175781 119.109375 140.488281 135.703125 123.894531 C 161.296875 98.300781 201.703125 96.519531 229.171875 118.644531 L 206.671875 141.238281 C 200.578125 142.175781 203.015625 134.957031 197.859375 127.738281 C 194.296875 123.144531 185.671875 119.300781 179.015625 125.957031 C 170.296875 133.175781 167.953125 146.582031 162.703125 151.738281 C 154.921875 160.925781 133.453125 158.675781 119.390625 177.800781 C 117.890625 180.050781 116.765625 182.394531 115.921875 184.644531 Z M 115.921875 184.644531 " fill-opacity="1" fill-rule="evenodd"/><path fill="#ffffff" d="M 240.328125 129.707031 C 262.453125 157.363281 260.671875 197.769531 235.078125 223.363281 C 218.484375 239.957031 195.796875 246.519531 174.234375 243.050781 C 176.578125 242.300781 178.921875 241.175781 181.265625 239.488281 C 200.390625 225.519531 198.046875 203.957031 207.328125 196.175781 C 212.484375 190.925781 225.890625 188.582031 233.109375 179.863281 C 238.828125 173.488281 237.328125 168.425781 236.015625 167.300781 C 233.390625 164.675781 229.265625 166.550781 222.421875 170.207031 C 216.421875 173.488281 206.203125 168.894531 209.109375 160.925781 Z M 240.328125 129.707031 " fill-opacity="1" fill-rule="evenodd"/><path fill="#ffffff" d="M 238.734375 120.238281 L 196.828125 163.550781 L 153.515625 205.550781 L 195.421875 162.144531 Z M 238.734375 120.238281 " fill-opacity="1" fill-rule="evenodd"/><path fill="#ffffff" d="M 245.578125 107.019531 L 203.671875 150.238281 L 160.359375 192.238281 L 202.265625 148.925781 Z M 245.578125 107.019531 " fill-opacity="1" fill-rule="evenodd"/><path fill="#ffffff" d="M 231.515625 134.300781 L 189.609375 177.613281 L 146.390625 219.613281 L 188.296875 176.207031 Z M 231.515625 134.300781 " fill-opacity="1" fill-rule="evenodd"/><g fill="#ffffff" fill-opacity="1"><g transform="translate(111.606199, 271.090233)"><g><path d="M 3.5625 -5.359375 C 3.5625 -3.835938 3.734375 -2.796875 4.078125 -2.234375 C 4.429688 -1.671875 4.929688 -1.390625 5.578125 -1.390625 C 6.234375 -1.390625 6.722656 -1.632812 7.046875 -2.125 C 7.367188 -2.613281 7.585938 -3.546875 7.703125 -4.921875 L 9.640625 -4.671875 C 9.472656 -2.773438 9.050781 -1.453125 8.375 -0.703125 C 7.695312 0.046875 6.726562 0.421875 5.46875 0.421875 C 4.207031 0.421875 3.207031 -0.03125 2.46875 -0.9375 C 1.726562 -1.851562 1.359375 -3.519531 1.359375 -5.9375 L 1.359375 -13.5 C 1.359375 -15.925781 1.726562 -17.59375 2.46875 -18.5 C 3.207031 -19.40625 4.203125 -19.859375 5.453125 -19.859375 C 6.703125 -19.859375 7.65625 -19.535156 8.3125 -18.890625 C 8.976562 -18.242188 9.382812 -17.085938 9.53125 -15.421875 L 7.5 -14.921875 C 7.382812 -16.109375 7.175781 -16.925781 6.875 -17.375 C 6.570312 -17.832031 6.117188 -18.0625 5.515625 -18.0625 C 4.910156 -18.0625 4.429688 -17.769531 4.078125 -17.1875 C 3.734375 -16.601562 3.5625 -15.53125 3.5625 -13.96875 Z M 3.5625 -5.359375 "/></g></g></g><g fill="#ffffff" fill-opacity="1"><g transform="translate(121.993788, 271.090233)"><g><path d="M 3.890625 0 L 1.75 0 L 1.75 -20.5625 L 3.78125 -20.5625 L 3.78125 -13.21875 C 4.21875 -14.6875 5.132812 -15.421875 6.53125 -15.421875 C 7.488281 -15.421875 8.222656 -14.992188 8.734375 -14.140625 C 9.242188 -13.285156 9.5 -11.726562 9.5 -9.46875 L 9.5 0 L 7.359375 0 L 7.359375 -10.21875 C 7.359375 -12.539062 6.90625 -13.703125 6 -13.703125 C 4.625 -13.703125 3.921875 -11.71875 3.890625 -7.75 Z M 3.890625 0 "/></g></g></g><g fill="#ffffff" fill-opacity="1"><g transform="translate(133.047973, 271.090233)"><g><path d="M 6.390625 -15.421875 L 6.9375 -15.390625 L 6.78125 -13.03125 C 6.519531 -13.15625 6.269531 -13.21875 6.03125 -13.21875 C 4.625 -13.21875 3.910156 -11.753906 3.890625 -8.828125 L 3.890625 0 L 1.75 0 L 1.75 -15 L 3.0625 -15 L 3.671875 -12.453125 C 4.035156 -14.429688 4.941406 -15.421875 6.390625 -15.421875 Z M 6.390625 -15.421875 "/></g></g></g><g fill="#ffffff" fill-opacity="1"><g transform="translate(140.213757, 271.090233)"><g><path d="M 1.75 0 L 1.75 -15 L 3.890625 -15 L 3.890625 0 Z M 1.671875 -17.953125 L 1.671875 -20.5625 L 3.96875 -20.5625 L 3.96875 -17.953125 Z M 1.671875 -17.953125 "/></g></g></g><g fill="#ffffff" fill-opacity="1"><g transform="translate(145.851936, 271.090233)"><g><path d="M 6.6875 -3.359375 C 6.6875 -4.410156 6.300781 -5.21875 5.53125 -5.78125 L 3.609375 -7.140625 C 2.179688 -8.085938 1.46875 -9.484375 1.46875 -11.328125 C 1.46875 -12.828125 1.785156 -13.882812 2.421875 -14.5 C 3.066406 -15.113281 3.9375 -15.421875 5.03125 -15.421875 C 6.125 -15.421875 6.972656 -15.132812 7.578125 -14.5625 C 8.191406 -13.988281 8.566406 -12.941406 8.703125 -11.421875 L 6.78125 -11.03125 C 6.6875 -12.820312 6.113281 -13.71875 5.0625 -13.71875 C 4.019531 -13.71875 3.5 -12.988281 3.5 -11.53125 C 3.5 -10.34375 3.890625 -9.460938 4.671875 -8.890625 L 6.5 -7.609375 C 6.96875 -7.296875 7.332031 -7.015625 7.59375 -6.765625 C 7.863281 -6.515625 8.125 -6.097656 8.375 -5.515625 C 8.625 -4.929688 8.75 -4.25 8.75 -3.46875 C 8.75 -2.039062 8.414062 -1.035156 7.75 -0.453125 C 7.082031 0.128906 6.175781 0.421875 5.03125 0.421875 C 3.894531 0.421875 3.003906 0.0820312 2.359375 -0.59375 C 1.710938 -1.269531 1.316406 -2.460938 1.171875 -4.171875 L 3.140625 -4.53125 C 3.210938 -3.320312 3.398438 -2.476562 3.703125 -2 C 4.015625 -1.519531 4.4375 -1.28125 4.96875 -1.28125 C 6.113281 -1.28125 6.6875 -1.972656 6.6875 -3.359375 Z M 6.6875 -3.359375 "/></g></g></g><g fill="#ffffff" fill-opacity="1"><g transform="translate(155.739603, 271.090233)"><g><path d="M 1.75 0 L 1.75 -19.453125 L 5.1875 -19.453125 C 6.582031 -19.453125 7.65625 -19 8.40625 -18.09375 C 9.15625 -17.195312 9.53125 -15.570312 9.53125 -13.21875 L 9.53125 -13.078125 C 9.53125 -10.734375 9.15625 -9.113281 8.40625 -8.21875 C 7.65625 -7.332031 6.582031 -6.890625 5.1875 -6.890625 L 3.96875 -6.890625 L 3.96875 0 Z M 7.328125 -12.71875 L 7.328125 -13.578125 C 7.328125 -16.304688 6.613281 -17.671875 5.1875 -17.671875 L 3.96875 -17.671875 L 3.96875 -8.640625 L 5.1875 -8.640625 C 6.613281 -8.640625 7.328125 -10 7.328125 -12.71875 Z M 7.328125 -12.71875 "/></g></g></g><g fill="#ffffff" fill-opacity="1"><g transform="translate(165.821683, 271.090233)"><g><path d="M 9.109375 -3.890625 C 8.984375 -2.273438 8.601562 -1.148438 7.96875 -0.515625 C 7.34375 0.109375 6.429688 0.421875 5.234375 0.421875 C 4.035156 0.421875 3.085938 0 2.390625 -0.84375 C 1.703125 -1.6875 1.359375 -3.210938 1.359375 -5.421875 L 1.359375 -9.578125 C 1.359375 -11.785156 1.703125 -13.3125 2.390625 -14.15625 C 3.085938 -15 4.066406 -15.421875 5.328125 -15.421875 C 6.585938 -15.421875 7.539062 -15.003906 8.1875 -14.171875 C 8.84375 -13.335938 9.171875 -11.804688 9.171875 -9.578125 L 9.171875 -6.609375 L 3.46875 -6.609375 L 3.46875 -5.03125 C 3.46875 -2.550781 4.0625 -1.3125 5.25 -1.3125 C 5.820312 -1.3125 6.265625 -1.515625 6.578125 -1.921875 C 6.898438 -2.328125 7.125 -3.082031 7.25 -4.1875 Z M 3.46875 -9.96875 L 3.46875 -8.390625 L 7.03125 -8.390625 L 7.03125 -9.96875 C 7.03125 -12.457031 6.445312 -13.703125 5.28125 -13.703125 C 4.070312 -13.703125 3.46875 -12.457031 3.46875 -9.96875 Z M 3.46875 -9.96875 "/></g></g></g><g fill="#ffffff" fill-opacity="1"><g transform="translate(176.348147, 271.090233)"><g><path d="M 3.890625 0 L 1.75 0 L 1.75 -15 L 3.0625 -15 L 3.609375 -12.609375 C 3.992188 -14.484375 4.96875 -15.421875 6.53125 -15.421875 C 7.488281 -15.421875 8.222656 -14.992188 8.734375 -14.140625 C 9.242188 -13.285156 9.5 -11.726562 9.5 -9.46875 L 9.5 0 L 7.359375 0 L 7.359375 -10.21875 C 7.359375 -12.539062 6.90625 -13.703125 6 -13.703125 C 4.625 -13.703125 3.921875 -11.71875 3.890625 -7.75 Z M 3.890625 0 "/></g></g></g><g fill="#ffffff" fill-opacity="1"><g transform="translate(187.402333, 271.090233)"><g><path d="M 1.25 -4.640625 C 1.25 -6.398438 1.507812 -7.597656 2.03125 -8.234375 C 2.550781 -8.878906 3.289062 -9.203125 4.25 -9.203125 C 5.207031 -9.203125 5.96875 -8.828125 6.53125 -8.078125 L 6.53125 -11 C 6.53125 -12.78125 5.972656 -13.671875 4.859375 -13.671875 C 3.910156 -13.671875 3.015625 -13.125 2.171875 -12.03125 L 1.421875 -13.578125 C 1.847656 -14.097656 2.390625 -14.535156 3.046875 -14.890625 C 3.703125 -15.242188 4.375 -15.421875 5.0625 -15.421875 C 7.46875 -15.421875 8.671875 -13.789062 8.671875 -10.53125 L 8.671875 0 L 7.359375 0 L 6.921875 -1.8125 C 6.710938 -1.0625 6.367188 -0.5 5.890625 -0.125 C 5.421875 0.238281 4.894531 0.421875 4.3125 0.421875 C 3.3125 0.421875 2.550781 0.101562 2.03125 -0.53125 C 1.507812 -1.175781 1.25 -2.378906 1.25 -4.140625 Z M 4.75 -1.328125 C 5.289062 -1.328125 5.710938 -1.519531 6.015625 -1.90625 C 6.316406 -2.300781 6.488281 -3.007812 6.53125 -4.03125 L 6.53125 -4.78125 C 6.488281 -5.875 6.316406 -6.632812 6.015625 -7.0625 C 5.710938 -7.488281 5.289062 -7.703125 4.75 -7.703125 C 3.820312 -7.703125 3.359375 -6.820312 3.359375 -5.0625 L 3.359375 -3.96875 C 3.359375 -2.207031 3.820312 -1.328125 4.75 -1.328125 Z M 4.75 -1.328125 "/></g></g></g><g fill="#ffffff" fill-opacity="1"><g transform="translate(197.623288, 271.090233)"><g/></g></g><g fill="#ffffff" fill-opacity="1"><g transform="translate(201.622785, 271.090233)"><g><path d="M 5.421875 -8.53125 L 5.421875 -10.3125 L 9.78125 -10.3125 L 9.78125 -0.03125 L 8.421875 -0.03125 L 8.03125 -1.828125 C 7.476562 -0.328125 6.476562 0.421875 5.03125 0.421875 C 3.863281 0.421875 2.957031 -0.0234375 2.3125 -0.921875 C 1.675781 -1.828125 1.359375 -3.457031 1.359375 -5.8125 L 1.359375 -13.5 C 1.359375 -15.925781 1.726562 -17.59375 2.46875 -18.5 C 3.207031 -19.40625 4.203125 -19.859375 5.453125 -19.859375 C 6.703125 -19.859375 7.65625 -19.535156 8.3125 -18.890625 C 8.976562 -18.242188 9.382812 -17.085938 9.53125 -15.421875 L 7.5 -14.921875 C 7.382812 -16.109375 7.175781 -16.925781 6.875 -17.375 C 6.570312 -17.832031 6.117188 -18.0625 5.515625 -18.0625 C 4.910156 -18.0625 4.429688 -17.769531 4.078125 -17.1875 C 3.734375 -16.601562 3.5625 -15.53125 3.5625 -13.96875 L 3.5625 -5.390625 C 3.5625 -3.867188 3.726562 -2.820312 4.0625 -2.25 C 4.40625 -1.675781 4.894531 -1.390625 5.53125 -1.390625 C 6.9375 -1.390625 7.660156 -2.640625 7.703125 -5.140625 L 7.703125 -8.53125 Z M 5.421875 -8.53125 "/></g></g></g><g fill="#ffffff" fill-opacity="1"><g transform="translate(212.9547, 271.090233)"><g><path d="M 6.96875 -15 L 9.078125 -15 L 9.078125 0 L 7.78125 0 L 7.328125 -1.828125 C 6.898438 -0.328125 6.003906 0.421875 4.640625 0.421875 C 3.617188 0.421875 2.847656 0.109375 2.328125 -0.515625 C 1.816406 -1.148438 1.5625 -2.359375 1.5625 -4.140625 L 1.5625 -15 L 3.671875 -15 L 3.671875 -3.96875 C 3.671875 -2.945312 3.796875 -2.25 4.046875 -1.875 C 4.296875 -1.507812 4.671875 -1.328125 5.171875 -1.328125 C 6.296875 -1.328125 6.894531 -2.226562 6.96875 -4.03125 Z M 6.96875 -15 "/></g></g></g><g fill="#ffffff" fill-opacity="1"><g transform="translate(223.814453, 271.090233)"><g><path d="M 1.75 0 L 1.75 -15 L 3.890625 -15 L 3.890625 0 Z M 1.671875 -17.953125 L 1.671875 -20.5625 L 3.96875 -20.5625 L 3.96875 -17.953125 Z M 1.671875 -17.953125 "/></g></g></g><g fill="#ffffff" fill-opacity="1"><g transform="translate(229.452632, 271.090233)"><g><path d="M 0.5625 -13.28125 L 0.5625 -15 L 2.03125 -15 L 2.78125 -18.703125 L 4.0625 -18.703125 L 4.0625 -15 L 6.03125 -15 L 6.03125 -13.28125 L 4.0625 -13.28125 L 4.0625 -2.828125 C 4.0625 -1.847656 4.328125 -1.359375 4.859375 -1.359375 C 5.210938 -1.359375 5.582031 -1.507812 5.96875 -1.8125 L 6.390625 -0.171875 C 5.753906 0.222656 5.101562 0.421875 4.4375 0.421875 C 2.769531 0.421875 1.9375 -0.8125 1.9375 -3.28125 L 1.9375 -13.28125 Z M 0.5625 -13.28125 "/></g></g></g><g fill="#ffffff" fill-opacity="1"><g transform="translate(236.090695, 271.090233)"><g><path d="M 1.25 -4.640625 C 1.25 -6.398438 1.507812 -7.597656 2.03125 -8.234375 C 2.550781 -8.878906 3.289062 -9.203125 4.25 -9.203125 C 5.207031 -9.203125 5.96875 -8.828125 6.53125 -8.078125 L 6.53125 -11 C 6.53125 -12.78125 5.972656 -13.671875 4.859375 -13.671875 C 3.910156 -13.671875 3.015625 -13.125 2.171875 -12.03125 L 1.421875 -13.578125 C 1.847656 -14.097656 2.390625 -14.535156 3.046875 -14.890625 C 3.703125 -15.242188 4.375 -15.421875 5.0625 -15.421875 C 7.46875 -15.421875 8.671875 -13.789062 8.671875 -10.53125 L 8.671875 0 L 7.359375 0 L 6.921875 -1.8125 C 6.710938 -1.0625 6.367188 -0.5 5.890625 -0.125 C 5.421875 0.238281 4.894531 0.421875 4.3125 0.421875 C 3.3125 0.421875 2.550781 0.101562 2.03125 -0.53125 C 1.507812 -1.175781 1.25 -2.378906 1.25 -4.140625 Z M 4.75 -1.328125 C 5.289062 -1.328125 5.710938 -1.519531 6.015625 -1.90625 C 6.316406 -2.300781 6.488281 -3.007812 6.53125 -4.03125 L 6.53125 -4.78125 C 6.488281 -5.875 6.316406 -6.632812 6.015625 -7.0625 C 5.710938 -7.488281 5.289062 -7.703125 4.75 -7.703125 C 3.820312 -7.703125 3.359375 -6.820312 3.359375 -5.0625 L 3.359375 -3.96875 C 3.359375 -2.207031 3.820312 -1.328125 4.75 -1.328125 Z M 4.75 -1.328125 "/></g></g></g><g fill="#ffffff" fill-opacity="1"><g transform="translate(246.31165, 271.090233)"><g><path d="M 6.390625 -15.421875 L 6.9375 -15.390625 L 6.78125 -13.03125 C 6.519531 -13.15625 6.269531 -13.21875 6.03125 -13.21875 C 4.625 -13.21875 3.910156 -11.753906 3.890625 -8.828125 L 3.890625 0 L 1.75 0 L 1.75 -15 L 3.0625 -15 L 3.671875 -12.453125 C 4.035156 -14.429688 4.941406 -15.421875 6.390625 -15.421875 Z M 6.390625 -15.421875 "/></g></g></g><g fill="#ffffff" fill-opacity="1"><g transform="translate(253.477434, 271.090233)"><g><path d="M 6.6875 -3.359375 C 6.6875 -4.410156 6.300781 -5.21875 5.53125 -5.78125 L 3.609375 -7.140625 C 2.179688 -8.085938 1.46875 -9.484375 1.46875 -11.328125 C 1.46875 -12.828125 1.785156 -13.882812 2.421875 -14.5 C 3.066406 -15.113281 3.9375 -15.421875 5.03125 -15.421875 C 6.125 -15.421875 6.972656 -15.132812 7.578125 -14.5625 C 8.191406 -13.988281 8.566406 -12.941406 8.703125 -11.421875 L 6.78125 -11.03125 C 6.6875 -12.820312 6.113281 -13.71875 5.0625 -13.71875 C 4.019531 -13.71875 3.5 -12.988281 3.5 -11.53125 C 3.5 -10.34375 3.890625 -9.460938 4.671875 -8.890625 L 6.5 -7.609375 C 6.96875 -7.296875 7.332031 -7.015625 7.59375 -6.765625 C 7.863281 -6.515625 8.125 -6.097656 8.375 -5.515625 C 8.625 -4.929688 8.75 -4.25 8.75 -3.46875 C 8.75 -2.039062 8.414062 -1.035156 7.75 -0.453125 C 7.082031 0.128906 6.175781 0.421875 5.03125 0.421875 C 3.894531 0.421875 3.003906 0.0820312 2.359375 -0.59375 C 1.710938 -1.269531 1.316406 -2.460938 1.171875 -4.171875 L 3.140625 -4.53125 C 3.210938 -3.320312 3.398438 -2.476562 3.703125 -2 C 4.015625 -1.519531 4.4375 -1.28125 4.96875 -1.28125 C 6.113281 -1.28125 6.6875 -1.972656 6.6875 -3.359375 Z M 6.6875 -3.359375 "/></g></g></g></svg>